<?xml version="1.0" encoding="UTF-8"?>
<svg width="390px" height="100px" viewBox="0 0 390 100" version="1.1" xmlns="http://www.w3.org/2000/svg" xmlns:xlink="http://www.w3.org/1999/xlink">
    <!-- Generator: Sketch 58 (84663) - https://sketch.com -->
    <title>Privyr Branding-Navbar</title>
    <desc>Created with Sketch.</desc>
    <defs>
        <linearGradient x1="1.79961301e-05%" y1="49.9999364%" x2="100.00001%" y2="49.9999364%" id="linearGradient-1">
            <stop stop-color="#68CAFE" offset="0%"></stop>
            <stop stop-color="#D355FF" offset="100%"></stop>
        </linearGradient>
    </defs>
    <g id="Page-1" stroke="none" stroke-width="1" fill="none" fill-rule="evenodd">
        <g id="Privyr-Logo-w-Text---Gradient-2" transform="translate(-16.000000, -16.000000)" fill-rule="nonzero">
            <g id="Privyr-Branding-Navbar" transform="translate(16.000000, 16.000000)">
                <g id="Logo/Privyr/Appbar_32px" fill="url(#linearGradient-1)">
                    <path d="M65.8693605,100 C57.5756336,99.9831124 43.8693279,96.0104813 37.7669119,82.2672446 L37.7669119,82.2672446 C34.6405424,75.2251294 33.7069709,65.5399074 33.1490721,57.938476 L33.1490721,57.938476 C32.8173338,53.4224706 32.9664403,48.3390429 33.0703958,43.1245677 L33.0703958,43.1245677 C33.2332909,34.9423391 33.2857417,26.4364096 31.1978455,19.2905372 L31.1978455,19.2905372 C29.598229,13.8165339 26.5910906,9.25459424 21.8100852,5.79075171 L21.8100852,5.79075171 C14.9594332,0.827158186 8.55745252,2.13641744 8.55745252,2.13641744 L8.55745252,2.13641744 C37.0142149,-6.02514077 46.5767663,11.057781 49.8918508,22.068069 L49.8918508,22.068069 C51.8433478,28.5510031 52.4586993,36.3241473 53.4571585,43.0233774 L53.4571585,43.0233774 C55.0201404,53.5073137 57.4217957,67.7201598 60.5884497,78.5090181 L60.5884497,78.5090181 C65.6694253,95.8209353 82.0969581,96.514001 82.0969581,96.514001 L82.0969581,96.514001 C82.0969581,96.514001 74.8081791,100 65.9377629,100 L65.9377629,100 C65.9154578,100 65.8916656,100 65.8693605,100 M75.3967645,92.0690584 C71.3412845,89.7723494 68.2320831,87.6107409 65.1561368,81.9013924 L65.1561368,81.9013924 C83.6934654,72.4584057 82.6009191,59.2207152 82.6009191,59.2207152 L82.6009191,59.2207152 C82.6009191,59.2207152 80.8538183,57.8009437 76.1798776,55.0524585 L76.1798776,55.0524585 L76.1785258,55.0515128 L76.1782555,55.0515128 C71.181093,52.1129411 64.6091877,50.2374756 57.4054386,48.7040845 L57.4054386,48.7040845 C57.0772151,46.6629857 56.7623746,44.6201306 56.4579433,42.5765999 L56.4579433,42.5765999 L56.4173885,42.3018054 C63.2746644,43.13443 69.9128092,43.9902919 75.8749055,45.7520028 L75.8749055,45.7520028 C90.7760908,50.1554695 101.123378,59.5149641 99.9022726,75.4522334 L99.9022726,75.4522334 C99.2885433,83.4634248 92.3961199,90.5453946 85.1299164,94.500868 L85.1299164,94.500868 C84.9141649,94.5196469 84.6892209,94.5285636 84.4571123,94.5285636 L84.4571123,94.5285636 C81.3441259,94.5285636 76.9172991,92.9301892 75.3967645,92.0690584 M82.6009191,59.2207152 C82.6009191,59.2207152 82.3955766,58.9257907 81.5140505,58.2701478 L81.5140505,58.2701478 L82.6009191,59.2207152 C82.6009191,59.2207152 82.6009191,59.2207152 82.6009191,59.2207152 M3.78198965,29.7740683 C-1.34278522,23.1980499 -1.0910751,14.2511523 3.5196001,7.47950835 L3.5196001,7.47950835 C4.42005184,6.15700925 5.23885325,5.00662823 6.04805669,4.3888135 L6.04805669,4.3888135 L6.31842202,4.25371297 C11.3127456,3.87097316 13.7851014,4.69697781 14.6997473,5.33451722 L14.6997473,5.33451722 C13.3179101,6.81386804 10.3409174,11.0477836 9.72853996,15.512586 L9.72853996,15.512586 C9.45087476,17.5376078 9.66851885,19.8000013 10.7671484,22.2106001 L10.7671484,22.2106001 C13.7121028,28.6719181 19.4014005,33.4565034 27.300394,36.450061 L27.300394,36.450061 C28.21139,36.795378 29.1509095,37.1236723 30.1171952,37.4360247 L30.1171952,37.4360247 C30.1116527,39.3520204 30.0736664,41.2400504 30.0373023,43.0640426 L30.0373023,43.0640426 L30.0316246,43.3459974 C19.1680752,40.7478791 9.40964405,36.995597 3.78198965,29.7740683" id="Logo-Privyr-100px" transform="translate(50.000000, 50.000000) scale(1, -1) translate(-50.000000, -50.000000) "></path>
                </g>
                <path d="M166.168055,18.3895539 C169.246665,18.3895539 172.174319,19.3114404 174.951105,21.1552412 C177.72789,22.999042 179.961358,25.4775567 181.651576,28.5908596 C183.341793,31.7041626 184.186889,35.1045638 184.186889,38.7921654 C184.186889,42.4193145 183.341793,45.8046028 181.651576,48.948132 C179.961358,52.0916612 177.72789,54.5852888 174.951105,56.4290896 C172.174319,58.2728904 169.246665,59.1947769 166.168055,59.1947769 L150.412894,59.1947769 L150.412894,76.3329706 C150.412894,77.9651877 149.929982,79.2951224 148.964143,80.3228147 C147.998305,81.3505069 146.730661,81.8643453 145.161173,81.8643453 C143.652051,81.8643453 142.414589,81.335394 141.44875,80.2774755 C140.482912,79.219557 140,77.9047352 140,76.3329706 L140,23.9209285 C140,22.3491639 140.528185,21.0343421 141.584571,19.9764236 C142.640957,18.9185052 143.953874,18.3895539 145.523361,18.3895539 L166.168055,18.3895539 Z M166.168055,48.8574538 C167.314988,48.8574538 168.446813,48.3738411 169.563564,47.4066014 C170.680315,46.4393616 171.585775,45.1849914 172.279971,43.643453 C172.974167,42.1019147 173.32126,40.484835 173.32126,38.7921654 C173.32126,37.0994958 172.974167,35.4824161 172.279971,33.9408778 C171.585775,32.3993394 170.680315,31.1600821 169.563564,30.2230686 C168.446813,29.286055 167.314988,28.8175553 166.168055,28.8175553 L150.412894,28.8175553 L150.412894,48.8574538 L166.168055,48.8574538 Z M218.866353,32.4446863 C220.6773,32.4446863 222.201491,32.9585247 223.438971,33.9862169 C224.676452,35.0139091 225.295183,36.2229407 225.295183,37.6133478 C225.295183,39.4873749 224.812271,40.892874 223.846432,41.8298876 C222.880594,42.7669011 221.733678,43.2354008 220.40565,43.2354008 C219.500177,43.2354008 218.473989,43.0238203 217.327055,42.6006529 C217.145961,42.5402004 216.738504,42.4192972 216.104672,42.2379398 C215.470841,42.0565823 214.791746,41.965905 214.067367,41.965905 C212.497879,41.965905 210.988779,42.4495176 209.540022,43.4167573 C208.091264,44.3839971 206.899075,45.8499479 205.963419,47.8146536 C205.027763,49.7793594 204.559942,52.121858 204.559942,54.8422198 L204.559942,76.3329706 C204.559942,77.9047352 204.046848,79.219557 203.020645,80.2774755 C201.994441,81.335394 200.696615,81.8643453 199.127128,81.8643453 C197.55764,81.8643453 196.259814,81.335394 195.233611,80.2774755 C194.207408,79.219557 193.694314,77.9047352 193.694314,76.3329706 L193.694314,38.8828437 C193.694314,37.3110791 194.207408,35.9962573 195.233611,34.9383388 C196.259814,33.8804203 197.55764,33.351469 199.127128,33.351469 C200.696615,33.351469 201.994441,33.8804203 203.020645,34.9383388 C204.046848,35.9962573 204.559942,37.3110791 204.559942,38.8828437 L204.559942,40.0616612 C205.948335,37.5831094 207.940347,35.6939976 210.536038,34.3942691 C213.131729,33.0945407 215.908472,32.4446863 218.866353,32.4446863 Z M243.22347,76.3329706 C243.22347,77.9047352 242.710376,79.219557 241.684172,80.2774755 C240.657969,81.335394 239.360143,81.8643453 237.790656,81.8643453 C236.221168,81.8643453 234.923342,81.335394 233.897139,80.2774755 C232.870935,79.219557 232.357841,77.9047352 232.357841,76.3329706 L232.357841,38.8828437 C232.357841,37.3110791 232.870935,35.9962573 233.897139,34.9383388 C234.923342,33.8804203 236.221168,33.351469 237.790656,33.351469 C239.360143,33.351469 240.657969,33.8804203 241.684172,34.9383388 C242.710376,35.9962573 243.22347,37.3110791 243.22347,38.8828437 L243.22347,76.3329706 Z M237.700109,27.4573812 C235.647702,27.4573812 234.198966,27.1248975 233.353857,26.4599202 C232.508749,25.7949429 232.086201,24.6161371 232.086201,22.9234675 L232.086201,21.2005803 C232.086201,19.5079108 232.538931,18.329105 233.444404,17.6641277 C234.349878,16.9991503 235.798614,16.6666667 237.790656,16.6666667 C239.903427,16.6666667 241.382345,16.9991503 242.227454,17.6641277 C243.072562,18.329105 243.49511,19.5079108 243.49511,21.2005803 L243.49511,22.9234675 C243.49511,24.6765896 243.057471,25.8705083 242.18218,26.5052593 C241.306889,27.1400104 239.81288,27.4573812 237.700109,27.4573812 Z M291.575516,33.4421473 C293.024274,33.4421473 294.231554,33.910647 295.197392,34.8476605 C296.163231,35.784674 296.646143,36.9483669 296.646143,38.338774 C296.646143,39.0642038 296.404687,39.9709775 295.921767,41.0591222 L278.989497,78.4185709 C278.566942,79.4462631 277.948211,80.2623594 277.133285,80.8668843 C276.318359,81.4714091 275.397808,81.8038928 274.371604,81.8643453 L273.556682,81.9550236 C272.530479,81.9550236 271.579746,81.6376528 270.704455,81.0029017 C269.829164,80.3681506 269.150069,79.5067156 268.66715,78.4185709 L251.825426,41.0591222 C251.402871,40.0918825 251.191597,39.1246572 251.191597,38.1574175 C251.191597,36.9483678 251.704691,35.8451265 252.730895,34.8476605 C253.757098,33.8501945 255.024742,33.351469 256.533865,33.351469 C257.680798,33.351469 258.737168,33.6537269 259.703006,34.2582517 C260.668845,34.8627766 261.393213,35.7090987 261.876132,36.7972434 L274.371604,65.4515778 L286.77653,36.8879217 C287.259449,35.7393244 287.923453,34.8627766 288.768562,34.2582517 C289.613671,33.6537269 290.549313,33.3816948 291.575516,33.4421473 Z M341.195219,33.351469 C342.764707,33.351469 344.062533,33.8804203 345.088736,34.9383388 C346.114939,35.9962573 346.628033,37.3110791 346.628033,38.8828437 L346.628033,77.4211099 C346.628033,85.2799329 344.515293,91.0077199 340.28975,94.6046427 C336.064207,98.2015656 330.420173,100 323.357479,100 C321.305072,100 319.207423,99.8337582 317.064469,99.5012695 C314.921515,99.1687808 313.18605,98.7305069 311.858022,98.1864345 C308.900142,96.9169324 307.421224,95.1638366 307.421224,92.9270947 C307.421224,92.5039273 307.51177,92.0203147 307.692865,91.4762423 C308.055054,90.1462876 308.673785,89.1337237 309.549076,88.4385201 C310.424368,87.7433166 311.375101,87.39572 312.401304,87.39572 C313.004953,87.39572 313.578411,87.4863974 314.121695,87.6677548 C314.544249,87.8491123 315.283708,88.1513701 316.340094,88.5745375 C317.39648,88.9977049 318.513214,89.3453015 319.69033,89.6173377 C320.867445,89.8893739 322.089816,90.0253899 323.357479,90.0253899 C327.643387,90.0253899 330.797406,89.1035034 332.819631,87.2597026 C334.841855,85.4159018 335.852952,82.2573069 335.852952,77.783823 L335.852952,76.8770403 C332.713977,80.8064518 327.824493,82.771128 321.184353,82.771128 C318.045378,82.771128 315.268635,82.0305962 312.854038,80.5495103 C310.439442,79.0684245 308.568158,77.0130708 307.24013,74.3833877 C305.912102,71.7537047 305.248099,68.7462387 305.248099,65.3608995 L305.248099,38.8828437 C305.248099,37.3110791 305.761193,35.9962573 306.787396,34.9383388 C307.813599,33.8804203 309.111425,33.351469 310.680913,33.351469 C312.2504,33.351469 313.548226,33.8804203 314.57443,34.9383388 C315.600633,35.9962573 316.113727,37.3110791 316.113727,38.8828437 L316.113727,62.0964817 C316.113727,65.9049882 316.943732,68.6404221 318.603767,70.3028654 C320.263802,71.9653088 322.693453,72.796518 325.892792,72.796518 C329.031767,72.796518 331.461418,71.8746314 333.181818,70.0308306 C334.902218,68.1870298 335.762405,65.5422733 335.762405,62.0964817 L335.762405,38.8828437 C335.762405,37.3110791 336.275499,35.9962573 337.301702,34.9383388 C338.327906,33.8804203 339.625732,33.351469 341.195219,33.351469 Z M383.57117,32.4446863 C385.382117,32.4446863 386.906308,32.9585247 388.143788,33.9862169 C389.381269,35.0139091 390,36.2229407 390,37.6133478 C390,39.4873749 389.517088,40.892874 388.55125,41.8298876 C387.585411,42.7669011 386.438495,43.2354008 385.110467,43.2354008 C384.204994,43.2354008 383.178806,43.0238203 382.031873,42.6006529 C381.850778,42.5402004 381.443321,42.4192972 380.809489,42.2379398 C380.175658,42.0565823 379.496563,41.965905 378.772184,41.965905 C377.202696,41.965905 375.693597,42.4495176 374.244839,43.4167573 C372.796081,44.3839971 371.603892,45.8499479 370.668236,47.8146536 C369.73258,49.7793594 369.264759,52.121858 369.264759,54.8422198 L369.264759,76.3329706 C369.264759,77.9047352 368.751665,79.219557 367.725462,80.2774755 C366.699258,81.335394 365.401432,81.8643453 363.831945,81.8643453 C362.262457,81.8643453 360.964631,81.335394 359.938428,80.2774755 C358.912225,79.219557 358.399131,77.9047352 358.399131,76.3329706 L358.399131,38.8828437 C358.399131,37.3110791 358.912225,35.9962573 359.938428,34.9383388 C360.964631,33.8804203 362.262457,33.351469 363.831945,33.351469 C365.401432,33.351469 366.699258,33.8804203 367.725462,34.9383388 C368.751665,35.9962573 369.264759,37.3110791 369.264759,38.8828437 L369.264759,40.0616612 C370.653152,37.5831094 372.645164,35.6939976 375.240855,34.3942691 C377.836546,33.0945407 380.61329,32.4446863 383.57117,32.4446863 Z" id="Privyr-Quicksand-60px" fill="#0295E3"></path>
            </g>
        </g>
    </g>
</svg>