<svg xmlns="http://www.w3.org/2000/svg" width="16" height="16" viewBox="0 0 16 16">
    <defs>
        <style>
            .cls-1{fill:none;stroke:#fff;stroke-linecap:round;stroke-linejoin:round}
        </style>
    </defs>
    <g id="Group_4810" data-name="Group 4810" transform="translate(-448.245 49.718)">
        <g id="Group_4809" data-name="Group 4809">
            <path id="Path_1270" d="M463.741-40.977a.092.092 0 0 1-.078.092l-1.482.247a.475.475 0 0 0-.381.35 5.657 5.657 0 0 1-.614 1.478.477.477 0 0 0 .021.519l.872 1.229a.1.1 0 0 1-.011.12l-1.052 1.051a.088.088 0 0 1-.067.029.091.091 0 0 1-.053-.018l-1.224-.872a.479.479 0 0 0-.519-.021 5.664 5.664 0 0 1-1.479.614.468.468 0 0 0-.349.381l-.251 1.483a.092.092 0 0 1-.092.077H455.5a.091.091 0 0 1-.091-.077l-.247-1.483a.475.475 0 0 0-.35-.381 5.88 5.88 0 0 1-1.447-.593.492.492 0 0 0-.24-.063.464.464 0 0 0-.275.088l-1.236.879a.106.106 0 0 1-.052.017.094.094 0 0 1-.068-.028l-1.051-1.052a.1.1 0 0 1-.011-.12l.868-1.217a.484.484 0 0 0 .022-.523 5.569 5.569 0 0 1-.622-1.475.48.48 0 0 0-.381-.349l-1.493-.255a.09.09 0 0 1-.077-.091v-1.486a.091.091 0 0 1 .077-.092l1.472-.247a.478.478 0 0 0 .385-.353 5.606 5.606 0 0 1 .6-1.482.472.472 0 0 0-.024-.516l-.879-1.235a.1.1 0 0 1 .01-.12l1.052-1.052a.092.092 0 0 1 .067-.028.085.085 0 0 1 .053.018l1.218.868a.484.484 0 0 0 .522.021 5.615 5.615 0 0 1 1.475-.621.484.484 0 0 0 .35-.381l.254-1.493a.092.092 0 0 1 .092-.078h1.486a.091.091 0 0 1 .091.078l.247 1.472a.478.478 0 0 0 .353.384 5.72 5.72 0 0 1 1.514.622.477.477 0 0 0 .519-.022l1.218-.875a.1.1 0 0 1 .053-.018.1.1 0 0 1 .067.029l1.052 1.051a.1.1 0 0 1 .01.12l-.872 1.225a.479.479 0 0 0-.021.519 5.616 5.616 0 0 1 .614 1.479.469.469 0 0 0 .382.349l1.482.251a.092.092 0 0 1 .078.092v1.485z" class="cls-1" data-name="Path 1270"/>
            <path id="Path_1271" d="M455.779-39.952a2.233 2.233 0 0 1-2.231-2.231 2.233 2.233 0 0 1 2.231-2.231 2.233 2.233 0 0 1 2.231 2.231 2.233 2.233 0 0 1-2.231 2.231z" class="cls-1" data-name="Path 1271" transform="translate(.462 .462)"/>
        </g>
    </g>
</svg>
